<mxfile host="app.diagrams.net" modified="2023-06-16T18:10:31.570Z" agent="Mozilla/5.0 (Windows NT 10.0; Win64; x64) AppleWebKit/537.36 (KHTML, like Gecko) Chrome/114.0.0.0 Safari/537.36 Edg/114.0.1823.43" version="21.4.0" etag="GeEpDR1WdsglnRAcQOX6" type="github">
  <diagram name="Page-1" id="QisKqJQTr78yY6GR3V8y">
    <mxGraphModel>
      <root>
        <mxCell id="0" />
        <mxCell id="1" parent="0" />
      </root>
    </mxGraphModel>
  </diagram>
</mxfile>
